<svg xmlns="http://www.w3.org/2000/svg" viewBox="0 0 107 116"><g opacity=".5"><path d="M92.8 67.4V7l-10.7 6.8v43.8l-8.6-11.1-9.1 21.6-.7-26.2V24.6l-10.9 6v68.5l-11.3-6.6V65.2L23.6 54.9v27.2l-10.8-6.8v-5.9l-12 5.8v9.9l52.4 30.7 53.1-30.6v-9.9l-13.5-7.9zM82 82.1l-10.7-6.2 2.2-5L82 82.1zm-29.2 17z"/><path d="M82.1 13.7L92.8 7 81.8.1 70.3 6.9l11.8 6.9"/><path d="M82.1 57.6V13.8L70.3 6.9v37.6l3.3 2M82 82.1l-8.4-11.2-2.3 5M23.5 13.8l11.1-7-11-6.8L12 6.7l11.5 7M52.8 30.6l10.9-6L53 17.1 41.2 24l11.6 6.8"/><path d="M23.5 40.8L34.6 34V6.8l-11.1 7"/><path d="M41.1 50.9V37.4L34.6 34l-11.1 6.8M52.8 99.1z"/><path d="M41.5 92.5l11.3 6.6V30.8L41.2 24l-.1 13.4v13.5L23.5 40.8V13.7L12 6.7l.8 62.8v5.9M64.4 68.1l9.2-21.6-3.3-2-6.6-2.6"/></g><path fill="#A8AAAF" d="M107 75.4L53.2 106 0 75.3v9.9l53.2 30.7L107 85.3v-9.9"/><path fill="#C3C5C7" d="M107 75.4L52.9 90.9l.3 25L107 85.3v-9.9"/><path fill="#FFF" d="M53.2 106L0 75.3l59.2-28.5L107 75.4"/><path fill="#34308B" d="M70.3 6.9L81.8.1 93.6 7 81.7 19.7"/><linearGradient id="a" gradientUnits="userSpaceOnUse" x1="78" y1="111.1" x2="78" y2="35.9" gradientTransform="matrix(1 0 0 -1 0 118)"><stop offset=".062" stop-color="#442E7C"/><stop offset=".197" stop-color="#513375"/><stop offset=".448" stop-color="#734263"/><stop offset=".783" stop-color="#AA5946"/><stop offset=".966" stop-color="#CB6734"/></linearGradient><path fill="url(#a)" d="M70.3 75.3L82 82.1V61.4l3.7-16.2-3.6-31.4-11.8-6.9"/><path fill="#34308B" d="M12 6.7L23.6 0l11.7 6.8-11.9 12.7M41.2 24L53 17.1l11.4 6.7-11.7 13.5"/><linearGradient id="b" gradientUnits="userSpaceOnUse" x1="29" y1="111.2" x2="29" y2="35.9" gradientTransform="matrix(1 0 0 -1 0 118)"><stop offset=".006" stop-color="#FFDD9B"/><stop offset=".629" stop-color="#F4832A"/></linearGradient><path fill="url(#b)" d="M23.6 82.1l11.7-6.8V6.8l-12.6 7.4"/><path fill="#34308B" d="M23.3 41l18.5 10.9-.2-14.2-6.3-3.7"/><linearGradient id="c" gradientUnits="userSpaceOnUse" x1="32.4" y1="111.3" x2="32.4" y2="18.9" gradientTransform="matrix(1 0 0 -1 0 118)"><stop offset=".006" stop-color="#652D90"/><stop offset=".893" stop-color="#F37725"/></linearGradient><path fill="url(#c)" d="M41.2 24l11.6 6.8v68.3l-11.3-6.6V65.2L23.6 54.9v27.2L12 75.4V6.7l11.5 7v27.1l17.6 10.1"/><path fill="#34308B" d="M73.6 46.5l-9.9-5.8-.8 30.8 5.3-2.3"/><linearGradient id="d" gradientUnits="userSpaceOnUse" x1="73.2" y1="111" x2="73.2" y2="18.9" gradientTransform="matrix(1 0 0 -1 0 118)"><stop offset=".051" stop-color="#FFDD9B"/><stop offset=".126" stop-color="#FDC982"/><stop offset=".245" stop-color="#FAB063"/><stop offset=".368" stop-color="#F79C4A"/><stop offset=".497" stop-color="#F58E38"/><stop offset=".633" stop-color="#F4862D"/><stop offset=".792" stop-color="#F4832A"/></linearGradient><path fill="url(#d)" d="M82.1 13.7L93.6 7v68.3L82 82.1l-8.4-11.2-9.8 21.8-11 6.4V30.6l11.6-6.8v44.3l9.2-21.6 8.5 11.1"/></svg>