<svg xmlns="http://www.w3.org/2000/svg" viewBox="0 0 585 585"><path fill="#D3D2FC" d="M0 0h585v585H0z"/><path fill="#262625" d="M36 36h9v9h-9zM36 45h9v9h-9zM36 54h9v9h-9zM36 63h9v9h-9zM36 72h9v9h-9zM36 81h9v9h-9zM36 90h9v9h-9zM36 108h9v9h-9zM36 117h9v9h-9zM36 144h9v9h-9zM36 162h9v9h-9zM36 189h9v9h-9zM36 198h9v9h-9zM36 252h9v9h-9zM36 261h9v9h-9zM36 279h9v9h-9zM36 288h9v9h-9zM36 297h9v9h-9zM36 306h9v9h-9zM36 315h9v9h-9zM36 342h9v9h-9zM36 360h9v9h-9zM36 378h9v9h-9zM36 387h9v9h-9zM36 423h9v9h-9zM36 432h9v9h-9zM36 450h9v9h-9zM36 459h9v9h-9zM36 486h9v9h-9zM36 495h9v9h-9zM36 504h9v9h-9zM36 513h9v9h-9zM36 522h9v9h-9zM36 531h9v9h-9zM36 540h9v9h-9zM45 36h9v9h-9zM45 90h9v9h-9zM45 126h9v9h-9zM45 135h9v9h-9zM45 144h9v9h-9zM45 162h9v9h-9zM45 171h9v9h-9zM45 189h9v9h-9zM45 198h9v9h-9zM45 207h9v9h-9zM45 234h9v9h-9zM45 270h9v9h-9zM45 306h9v9h-9zM45 315h9v9h-9zM45 324h9v9h-9zM45 342h9v9h-9zM45 351h9v9h-9zM45 387h9v9h-9zM45 414h9v9h-9zM45 423h9v9h-9zM45 432h9v9h-9zM45 441h9v9h-9zM45 459h9v9h-9zM45 486h9v9h-9zM45 540h9v9h-9zM54 36h9v9h-9zM54 54h9v9h-9zM54 63h9v9h-9zM54 72h9v9h-9zM54 90h9v9h-9zM54 108h9v9h-9zM54 126h9v9h-9zM54 135h9v9h-9zM54 144h9v9h-9zM54 189h9v9h-9zM54 198h9v9h-9zM54 207h9v9h-9zM54 216h9v9h-9zM54 234h9v9h-9zM54 252h9v9h-9zM54 261h9v9h-9zM54 270h9v9h-9zM54 279h9v9h-9zM54 297h9v9h-9zM54 351h9v9h-9zM54 360h9v9h-9zM54 369h9v9h-9zM54 378h9v9h-9zM54 387h9v9h-9zM54 396h9v9h-9zM54 405h9v9h-9zM54 414h9v9h-9zM54 441h9v9h-9zM54 450h9v9h-9zM54 459h9v9h-9zM54 486h9v9h-9zM54 504h9v9h-9zM54 513h9v9h-9zM54 522h9v9h-9zM54 540h9v9h-9zM63 36h9v9h-9zM63 54h9v9h-9zM63 63h9v9h-9zM63 72h9v9h-9zM63 90h9v9h-9zM63 135h9v9h-9zM63 153h9v9h-9zM63 162h9v9h-9zM63 171h9v9h-9zM63 189h9v9h-9zM63 198h9v9h-9zM63 207h9v9h-9zM63 234h9v9h-9zM63 252h9v9h-9zM63 297h9v9h-9zM63 306h9v9h-9zM63 315h9v9h-9zM63 324h9v9h-9zM63 333h9v9h-9zM63 342h9v9h-9zM63 351h9v9h-9zM63 360h9v9h-9zM63 378h9v9h-9zM63 387h9v9h-9zM63 441h9v9h-9zM63 459h9v9h-9zM63 486h9v9h-9zM63 504h9v9h-9zM63 513h9v9h-9zM63 522h9v9h-9zM63 540h9v9h-9zM72 36h9v9h-9zM72 54h9v9h-9zM72 63h9v9h-9zM72 72h9v9h-9zM72 90h9v9h-9zM72 108h9v9h-9zM72 117h9v9h-9zM72 135h9v9h-9zM72 144h9v9h-9zM72 153h9v9h-9zM72 171h9v9h-9zM72 225h9v9h-9zM72 234h9v9h-9zM72 252h9v9h-9zM72 270h9v9h-9zM72 279h9v9h-9zM72 288h9v9h-9zM72 297h9v9h-9zM72 306h9v9h-9zM72 333h9v9h-9zM72 360h9v9h-9zM72 369h9v9h-9zM72 387h9v9h-9zM72 405h9v9h-9zM72 414h9v9h-9zM72 423h9v9h-9zM72 441h9v9h-9zM72 459h9v9h-9zM72 486h9v9h-9zM72 504h9v9h-9zM72 513h9v9h-9zM72 522h9v9h-9zM72 540h9v9h-9zM81 36h9v9h-9zM81 90h9v9h-9zM81 126h9v9h-9zM81 144h9v9h-9zM81 153h9v9h-9zM81 162h9v9h-9zM81 180h9v9h-9zM81 216h9v9h-9zM81 225h9v9h-9zM81 234h9v9h-9zM81 261h9v9h-9zM81 270h9v9h-9zM81 306h9v9h-9zM81 315h9v9h-9zM81 324h9v9h-9zM81 351h9v9h-9zM81 360h9v9h-9zM81 396h9v9h-9zM81 405h9v9h-9zM81 414h9v9h-9zM81 441h9v9h-9zM81 450h9v9h-9zM81 486h9v9h-9zM81 540h9v9h-9zM90 36h9v9h-9zM90 45h9v9h-9zM90 54h9v9h-9zM90 63h9v9h-9zM90 72h9v9h-9zM90 81h9v9h-9zM90 90h9v9h-9zM90 108h9v9h-9zM90 126h9v9h-9zM90 144h9v9h-9zM90 162h9v9h-9zM90 180h9v9h-9zM90 198h9v9h-9zM90 216h9v9h-9zM90 234h9v9h-9zM90 252h9v9h-9zM90 270h9v9h-9zM90 288h9v9h-9zM90 306h9v9h-9zM90 324h9v9h-9zM90 342h9v9h-9zM90 360h9v9h-9zM90 378h9v9h-9zM90 396h9v9h-9zM90 414h9v9h-9zM90 432h9v9h-9zM90 450h9v9h-9zM90 468h9v9h-9zM90 486h9v9h-9zM90 495h9v9h-9zM90 504h9v9h-9zM90 513h9v9h-9zM90 522h9v9h-9zM90 531h9v9h-9zM90 540h9v9h-9zM99 117h9v9h-9zM99 162h9v9h-9zM99 171h9v9h-9zM99 189h9v9h-9zM99 216h9v9h-9zM99 243h9v9h-9zM99 252h9v9h-9zM99 261h9v9h-9zM99 270h9v9h-9zM99 306h9v9h-9zM99 315h9v9h-9zM99 351h9v9h-9zM99 378h9v9h-9zM99 387h9v9h-9zM99 405h9v9h-9zM99 414h9v9h-9zM99 459h9v9h-9zM108 45h9v9h-9zM108 72h9v9h-9zM108 90h9v9h-9zM108 117h9v9h-9zM108 126h9v9h-9zM108 144h9v9h-9zM108 153h9v9h-9zM108 198h9v9h-9zM108 225h9v9h-9zM108 234h9v9h-9zM108 243h9v9h-9zM108 270h9v9h-9zM108 279h9v9h-9zM108 288h9v9h-9zM108 297h9v9h-9zM108 306h9v9h-9zM108 315h9v9h-9zM108 333h9v9h-9zM108 342h9v9h-9zM108 369h9v9h-9zM108 387h9v9h-9zM108 396h9v9h-9zM108 405h9v9h-9zM108 414h9v9h-9zM108 423h9v9h-9zM108 432h9v9h-9zM108 441h9v9h-9zM108 459h9v9h-9zM108 468h9v9h-9zM108 477h9v9h-9zM108 504h9v9h-9zM108 522h9v9h-9zM108 540h9v9h-9zM117 54h9v9h-9zM117 63h9v9h-9zM117 81h9v9h-9zM117 108h9v9h-9zM117 144h9v9h-9zM117 162h9v9h-9zM117 171h9v9h-9zM117 180h9v9h-9zM117 198h9v9h-9zM117 207h9v9h-9zM117 225h9v9h-9zM117 234h9v9h-9zM117 243h9v9h-9zM117 270h9v9h-9zM117 279h9v9h-9zM117 297h9v9h-9zM117 306h9v9h-9zM117 315h9v9h-9zM117 342h9v9h-9zM117 387h9v9h-9zM117 432h9v9h-9zM117 441h9v9h-9zM117 459h9v9h-9zM117 486h9v9h-9zM117 495h9v9h-9zM117 504h9v9h-9zM117 522h9v9h-9zM126 36h9v9h-9zM126 45h9v9h-9zM126 63h9v9h-9zM126 72h9v9h-9zM126 90h9v9h-9zM126 117h9v9h-9zM126 153h9v9h-9zM126 207h9v9h-9zM126 216h9v9h-9zM126 243h9v9h-9zM126 261h9v9h-9zM126 288h9v9h-9zM126 306h9v9h-9zM126 315h9v9h-9zM126 351h9v9h-9zM126 360h9v9h-9zM126 369h9v9h-9zM126 378h9v9h-9zM126 387h9v9h-9zM126 432h9v9h-9zM126 450h9v9h-9zM126 459h9v9h-9zM126 468h9v9h-9zM126 477h9v9h-9zM126 486h9v9h-9zM126 495h9v9h-9zM126 522h9v9h-9zM126 531h9v9h-9zM126 540h9v9h-9zM135 36h9v9h-9zM135 54h9v9h-9zM135 63h9v9h-9zM135 72h9v9h-9zM135 81h9v9h-9zM135 99h9v9h-9zM135 108h9v9h-9zM135 126h9v9h-9zM135 162h9v9h-9zM135 171h9v9h-9zM135 180h9v9h-9zM135 198h9v9h-9zM135 207h9v9h-9zM135 225h9v9h-9zM135 234h9v9h-9zM135 243h9v9h-9zM135 252h9v9h-9zM135 261h9v9h-9zM135 270h9v9h-9zM135 297h9v9h-9zM135 306h9v9h-9zM135 315h9v9h-9zM135 324h9v9h-9zM135 378h9v9h-9zM135 405h9v9h-9zM135 450h9v9h-9zM135 468h9v9h-9zM135 477h9v9h-9zM135 504h9v9h-9zM135 513h9v9h-9zM135 531h9v9h-9zM135 540h9v9h-9zM144 36h9v9h-9zM144 45h9v9h-9zM144 63h9v9h-9zM144 72h9v9h-9zM144 90h9v9h-9zM144 108h9v9h-9zM144 126h9v9h-9zM144 153h9v9h-9zM144 162h9v9h-9zM144 189h9v9h-9zM144 225h9v9h-9zM144 234h9v9h-9zM144 252h9v9h-9zM144 270h9v9h-9zM144 279h9v9h-9zM144 288h9v9h-9zM144 324h9v9h-9zM144 333h9v9h-9zM144 342h9v9h-9zM144 351h9v9h-9zM144 378h9v9h-9zM144 405h9v9h-9zM144 414h9v9h-9zM144 423h9v9h-9zM144 432h9v9h-9zM144 441h9v9h-9zM144 450h9v9h-9zM144 459h9v9h-9zM144 486h9v9h-9zM144 513h9v9h-9zM144 540h9v9h-9zM153 63h9v9h-9zM153 81h9v9h-9zM153 108h9v9h-9zM153 144h9v9h-9zM153 153h9v9h-9zM153 162h9v9h-9zM153 189h9v9h-9zM153 198h9v9h-9zM153 207h9v9h-9zM153 216h9v9h-9zM153 225h9v9h-9zM153 243h9v9h-9zM153 252h9v9h-9zM153 279h9v9h-9zM153 306h9v9h-9zM153 333h9v9h-9zM153 369h9v9h-9zM153 378h9v9h-9zM153 387h9v9h-9zM153 405h9v9h-9zM153 414h9v9h-9zM153 441h9v9h-9zM153 450h9v9h-9zM153 495h9v9h-9zM153 531h9v9h-9zM153 540h9v9h-9zM162 45h9v9h-9zM162 54h9v9h-9zM162 72h9v9h-9zM162 81h9v9h-9zM162 90h9v9h-9zM162 108h9v9h-9zM162 144h9v9h-9zM162 153h9v9h-9zM162 162h9v9h-9zM162 189h9v9h-9zM162 198h9v9h-9zM162 234h9v9h-9zM162 261h9v9h-9zM162 297h9v9h-9zM162 315h9v9h-9zM162 342h9v9h-9zM162 360h9v9h-9zM162 369h9v9h-9zM162 396h9v9h-9zM162 414h9v9h-9zM162 423h9v9h-9zM162 432h9v9h-9zM162 441h9v9h-9zM162 477h9v9h-9zM162 513h9v9h-9zM162 531h9v9h-9zM171 36h9v9h-9zM171 45h9v9h-9zM171 54h9v9h-9zM171 72h9v9h-9zM171 108h9v9h-9zM171 117h9v9h-9zM171 126h9v9h-9zM171 135h9v9h-9zM171 144h9v9h-9zM171 153h9v9h-9zM171 171h9v9h-9zM171 180h9v9h-9zM171 198h9v9h-9zM171 207h9v9h-9zM171 216h9v9h-9zM171 270h9v9h-9zM171 279h9v9h-9zM171 288h9v9h-9zM171 315h9v9h-9zM171 324h9v9h-9zM171 351h9v9h-9zM171 369h9v9h-9zM171 387h9v9h-9zM171 405h9v9h-9zM171 414h9v9h-9zM171 423h9v9h-9zM171 450h9v9h-9zM171 459h9v9h-9zM171 495h9v9h-9zM171 540h9v9h-9zM180 36h9v9h-9zM180 54h9v9h-9zM180 63h9v9h-9zM180 81h9v9h-9zM180 90h9v9h-9zM180 108h9v9h-9zM180 117h9v9h-9zM180 126h9v9h-9zM180 135h9v9h-9zM180 144h9v9h-9zM180 171h9v9h-9zM180 216h9v9h-9zM180 225h9v9h-9zM180 288h9v9h-9zM180 297h9v9h-9zM180 342h9v9h-9zM180 351h9v9h-9zM180 360h9v9h-9zM180 369h9v9h-9zM180 378h9v9h-9zM180 387h9v9h-9zM180 396h9v9h-9zM180 405h9v9h-9zM180 414h9v9h-9zM180 441h9v9h-9zM180 459h9v9h-9zM180 468h9v9h-9zM180 504h9v9h-9zM180 522h9v9h-9zM180 531h9v9h-9zM189 99h9v9h-9zM189 108h9v9h-9zM189 126h9v9h-9zM189 144h9v9h-9zM189 171h9v9h-9zM189 189h9v9h-9zM189 198h9v9h-9zM189 207h9v9h-9zM189 225h9v9h-9zM189 270h9v9h-9zM189 306h9v9h-9zM189 315h9v9h-9zM189 324h9v9h-9zM189 333h9v9h-9zM189 360h9v9h-9zM189 369h9v9h-9zM189 387h9v9h-9zM189 432h9v9h-9zM189 477h9v9h-9zM189 486h9v9h-9zM189 504h9v9h-9zM189 513h9v9h-9zM198 45h9v9h-9zM198 63h9v9h-9zM198 72h9v9h-9zM198 81h9v9h-9zM198 90h9v9h-9zM198 99h9v9h-9zM198 117h9v9h-9zM198 126h9v9h-9zM198 135h9v9h-9zM198 153h9v9h-9zM198 162h9v9h-9zM198 171h9v9h-9zM198 180h9v9h-9zM198 189h9v9h-9zM198 198h9v9h-9zM198 225h9v9h-9zM198 243h9v9h-9zM198 252h9v9h-9zM198 270h9v9h-9zM198 297h9v9h-9zM198 333h9v9h-9zM198 351h9v9h-9zM198 369h9v9h-9zM198 387h9v9h-9zM198 432h9v9h-9zM198 459h9v9h-9zM198 468h9v9h-9zM198 504h9v9h-9zM198 531h9v9h-9zM207 36h9v9h-9zM207 54h9v9h-9zM207 72h9v9h-9zM207 135h9v9h-9zM207 153h9v9h-9zM207 162h9v9h-9zM207 171h9v9h-9zM207 189h9v9h-9zM207 216h9v9h-9zM207 243h9v9h-9zM207 279h9v9h-9zM207 297h9v9h-9zM207 333h9v9h-9zM207 360h9v9h-9zM207 414h9v9h-9zM207 423h9v9h-9zM207 432h9v9h-9zM207 441h9v9h-9zM207 450h9v9h-9zM207 486h9v9h-9zM207 504h9v9h-9zM207 522h9v9h-9zM207 540h9v9h-9zM216 54h9v9h-9zM216 63h9v9h-9zM216 90h9v9h-9zM216 99h9v9h-9zM216 117h9v9h-9zM216 126h9v9h-9zM216 135h9v9h-9zM216 144h9v9h-9zM216 162h9v9h-9zM216 180h9v9h-9zM216 198h9v9h-9zM216 207h9v9h-9zM216 279h9v9h-9zM216 288h9v9h-9zM216 306h9v9h-9zM216 324h9v9h-9zM216 333h9v9h-9zM216 342h9v9h-9zM216 360h9v9h-9zM216 405h9v9h-9zM216 423h9v9h-9zM216 441h9v9h-9zM216 477h9v9h-9zM216 513h9v9h-9zM216 540h9v9h-9zM225 54h9v9h-9zM225 99h9v9h-9zM225 108h9v9h-9zM225 117h9v9h-9zM225 171h9v9h-9zM225 261h9v9h-9zM225 270h9v9h-9zM225 279h9v9h-9zM225 297h9v9h-9zM225 315h9v9h-9zM225 324h9v9h-9zM225 360h9v9h-9zM225 369h9v9h-9zM225 396h9v9h-9zM225 405h9v9h-9zM225 423h9v9h-9zM225 432h9v9h-9zM225 450h9v9h-9zM225 459h9v9h-9zM225 468h9v9h-9zM225 504h9v9h-9zM225 531h9v9h-9zM225 540h9v9h-9zM234 36h9v9h-9zM234 81h9v9h-9zM234 90h9v9h-9zM234 99h9v9h-9zM234 126h9v9h-9zM234 144h9v9h-9zM234 189h9v9h-9zM234 198h9v9h-9zM234 216h9v9h-9zM234 225h9v9h-9zM234 243h9v9h-9zM234 261h9v9h-9zM234 315h9v9h-9zM234 369h9v9h-9zM234 378h9v9h-9zM234 387h9v9h-9zM234 396h9v9h-9zM234 423h9v9h-9zM234 441h9v9h-9zM234 459h9v9h-9zM234 477h9v9h-9zM234 495h9v9h-9zM234 540h9v9h-9zM243 36h9v9h-9zM243 45h9v9h-9zM243 63h9v9h-9zM243 72h9v9h-9zM243 99h9v9h-9zM243 126h9v9h-9zM243 144h9v9h-9zM243 153h9v9h-9zM243 162h9v9h-9zM243 171h9v9h-9zM243 180h9v9h-9zM243 216h9v9h-9zM243 234h9v9h-9zM243 270h9v9h-9zM243 315h9v9h-9zM243 360h9v9h-9zM243 378h9v9h-9zM243 387h9v9h-9zM243 414h9v9h-9zM243 450h9v9h-9zM243 477h9v9h-9zM243 486h9v9h-9zM243 495h9v9h-9zM243 504h9v9h-9zM243 513h9v9h-9zM243 522h9v9h-9zM243 531h9v9h-9zM252 36h9v9h-9zM252 45h9v9h-9zM252 54h9v9h-9zM252 72h9v9h-9zM252 90h9v9h-9zM252 135h9v9h-9zM252 144h9v9h-9zM252 162h9v9h-9zM252 198h9v9h-9zM252 216h9v9h-9zM252 243h9v9h-9zM252 252h9v9h-9zM252 270h9v9h-9zM252 279h9v9h-9zM252 306h9v9h-9zM252 324h9v9h-9zM252 333h9v9h-9zM252 351h9v9h-9zM252 378h9v9h-9zM252 396h9v9h-9zM252 432h9v9h-9zM252 450h9v9h-9zM252 504h9v9h-9zM252 522h9v9h-9zM261 36h9v9h-9zM261 63h9v9h-9zM261 99h9v9h-9zM261 126h9v9h-9zM261 153h9v9h-9zM261 162h9v9h-9zM261 171h9v9h-9zM261 180h9v9h-9zM261 198h9v9h-9zM261 216h9v9h-9zM261 225h9v9h-9zM261 234h9v9h-9zM261 243h9v9h-9zM261 297h9v9h-9zM261 306h9v9h-9zM261 333h9v9h-9zM261 342h9v9h-9zM261 360h9v9h-9zM261 387h9v9h-9zM261 396h9v9h-9zM261 405h9v9h-9zM261 414h9v9h-9zM261 432h9v9h-9zM261 441h9v9h-9zM261 468h9v9h-9zM261 477h9v9h-9zM261 486h9v9h-9zM261 495h9v9h-9zM261 504h9v9h-9zM261 522h9v9h-9zM261 540h9v9h-9zM270 36h9v9h-9zM270 45h9v9h-9zM270 54h9v9h-9zM270 72h9v9h-9zM270 81h9v9h-9zM270 90h9v9h-9zM270 99h9v9h-9zM270 108h9v9h-9zM270 117h9v9h-9zM270 162h9v9h-9zM270 180h9v9h-9zM270 198h9v9h-9zM270 252h9v9h-9zM270 270h9v9h-9zM270 279h9v9h-9zM270 288h9v9h-9zM270 297h9v9h-9zM270 306h9v9h-9zM270 315h9v9h-9zM270 324h9v9h-9zM270 396h9v9h-9zM270 423h9v9h-9zM270 432h9v9h-9zM270 468h9v9h-9zM270 477h9v9h-9zM270 486h9v9h-9zM270 495h9v9h-9zM270 504h9v9h-9zM270 522h9v9h-9zM270 540h9v9h-9zM279 36h9v9h-9zM279 72h9v9h-9zM279 108h9v9h-9zM279 117h9v9h-9zM279 126h9v9h-9zM279 135h9v9h-9zM279 144h9v9h-9zM279 153h9v9h-9zM279 162h9v9h-9zM279 171h9v9h-9zM279 198h9v9h-9zM279 216h9v9h-9zM279 243h9v9h-9zM279 252h9v9h-9zM279 270h9v9h-9zM279 306h9v9h-9zM279 342h9v9h-9zM279 351h9v9h-9zM279 360h9v9h-9zM279 369h9v9h-9zM279 378h9v9h-9zM279 387h9v9h-9zM279 405h9v9h-9zM279 423h9v9h-9zM279 432h9v9h-9zM279 468h9v9h-9zM279 504h9v9h-9zM279 513h9v9h-9zM279 522h9v9h-9zM279 531h9v9h-9zM279 540h9v9h-9zM288 36h9v9h-9zM288 45h9v9h-9zM288 72h9v9h-9zM288 90h9v9h-9zM288 108h9v9h-9zM288 126h9v9h-9zM288 153h9v9h-9zM288 171h9v9h-9zM288 180h9v9h-9zM288 189h9v9h-9zM288 216h9v9h-9zM288 243h9v9h-9zM288 252h9v9h-9zM288 270h9v9h-9zM288 288h9v9h-9zM288 306h9v9h-9zM288 342h9v9h-9zM288 351h9v9h-9zM288 360h9v9h-9zM288 378h9v9h-9zM288 423h9v9h-9zM288 432h9v9h-9zM288 450h9v9h-9zM288 468h9v9h-9zM288 486h9v9h-9zM288 504h9v9h-9zM288 513h9v9h-9zM288 522h9v9h-9zM288 540h9v9h-9zM297 36h9v9h-9zM297 45h9v9h-9zM297 72h9v9h-9zM297 108h9v9h-9zM297 126h9v9h-9zM297 153h9v9h-9zM297 162h9v9h-9zM297 198h9v9h-9zM297 207h9v9h-9zM297 216h9v9h-9zM297 225h9v9h-9zM297 234h9v9h-9zM297 252h9v9h-9zM297 270h9v9h-9zM297 306h9v9h-9zM297 342h9v9h-9zM297 378h9v9h-9zM297 405h9v9h-9zM297 432h9v9h-9zM297 441h9v9h-9zM297 450h9v9h-9zM297 459h9v9h-9zM297 468h9v9h-9zM297 504h9v9h-9zM306 36h9v9h-9zM306 45h9v9h-9zM306 72h9v9h-9zM306 81h9v9h-9zM306 90h9v9h-9zM306 99h9v9h-9zM306 108h9v9h-9zM306 135h9v9h-9zM306 144h9v9h-9zM306 180h9v9h-9zM306 216h9v9h-9zM306 234h9v9h-9zM306 243h9v9h-9zM306 270h9v9h-9zM306 279h9v9h-9zM306 288h9v9h-9zM306 297h9v9h-9zM306 306h9v9h-9zM306 315h9v9h-9zM306 324h9v9h-9zM306 333h9v9h-9zM306 342h9v9h-9zM306 351h9v9h-9zM306 369h9v9h-9zM306 378h9v9h-9zM306 396h9v9h-9zM306 414h9v9h-9zM306 423h9v9h-9zM306 441h9v9h-9zM306 468h9v9h-9zM306 477h9v9h-9zM306 486h9v9h-9zM306 495h9v9h-9zM306 504h9v9h-9zM315 45h9v9h-9zM315 108h9v9h-9zM315 117h9v9h-9zM315 126h9v9h-9zM315 135h9v9h-9zM315 144h9v9h-9zM315 162h9v9h-9zM315 180h9v9h-9zM315 216h9v9h-9zM315 225h9v9h-9zM315 288h9v9h-9zM315 297h9v9h-9zM315 315h9v9h-9zM315 324h9v9h-9zM315 333h9v9h-9zM315 342h9v9h-9zM315 360h9v9h-9zM315 369h9v9h-9zM315 396h9v9h-9zM315 405h9v9h-9zM315 423h9v9h-9zM315 432h9v9h-9zM315 441h9v9h-9zM315 450h9v9h-9zM315 459h9v9h-9zM315 468h9v9h-9zM315 477h9v9h-9zM315 504h9v9h-9zM315 513h9v9h-9zM315 531h9v9h-9zM324 54h9v9h-9zM324 63h9v9h-9zM324 81h9v9h-9zM324 90h9v9h-9zM324 99h9v9h-9zM324 108h9v9h-9zM324 126h9v9h-9zM324 144h9v9h-9zM324 162h9v9h-9zM324 171h9v9h-9zM324 180h9v9h-9zM324 189h9v9h-9zM324 198h9v9h-9zM324 207h9v9h-9zM324 216h9v9h-9zM324 234h9v9h-9zM324 252h9v9h-9zM324 270h9v9h-9zM324 279h9v9h-9zM324 288h9v9h-9zM324 324h9v9h-9zM324 342h9v9h-9zM324 351h9v9h-9zM324 360h9v9h-9zM324 378h9v9h-9zM324 396h9v9h-9zM324 405h9v9h-9zM324 441h9v9h-9zM324 459h9v9h-9zM324 468h9v9h-9zM324 477h9v9h-9zM324 504h9v9h-9zM324 513h9v9h-9zM324 531h9v9h-9zM324 540h9v9h-9zM333 36h9v9h-9zM333 45h9v9h-9zM333 54h9v9h-9zM333 72h9v9h-9zM333 99h9v9h-9zM333 108h9v9h-9zM333 117h9v9h-9zM333 126h9v9h-9zM333 171h9v9h-9zM333 180h9v9h-9zM333 243h9v9h-9zM333 405h9v9h-9zM333 441h9v9h-9zM333 450h9v9h-9zM333 459h9v9h-9zM333 468h9v9h-9zM333 477h9v9h-9zM333 486h9v9h-9zM333 504h9v9h-9zM333 513h9v9h-9zM333 522h9v9h-9zM333 540h9v9h-9zM342 36h9v9h-9zM342 45h9v9h-9zM342 54h9v9h-9zM342 72h9v9h-9zM342 90h9v9h-9zM342 108h9v9h-9zM342 126h9v9h-9zM342 144h9v9h-9zM342 162h9v9h-9zM342 171h9v9h-9zM342 180h9v9h-9zM342 207h9v9h-9zM342 216h9v9h-9zM342 270h9v9h-9zM342 279h9v9h-9zM342 297h9v9h-9zM342 306h9v9h-9zM342 315h9v9h-9zM342 324h9v9h-9zM342 342h9v9h-9zM342 351h9v9h-9zM342 387h9v9h-9zM342 396h9v9h-9zM342 414h9v9h-9zM342 423h9v9h-9zM342 432h9v9h-9zM342 468h9v9h-9zM342 486h9v9h-9zM342 504h9v9h-9zM351 36h9v9h-9zM351 108h9v9h-9zM351 135h9v9h-9zM351 144h9v9h-9zM351 153h9v9h-9zM351 162h9v9h-9zM351 180h9v9h-9zM351 189h9v9h-9zM351 207h9v9h-9zM351 216h9v9h-9zM351 234h9v9h-9zM351 252h9v9h-9zM351 279h9v9h-9zM351 288h9v9h-9zM351 297h9v9h-9zM351 306h9v9h-9zM351 351h9v9h-9zM351 396h9v9h-9zM351 405h9v9h-9zM351 414h9v9h-9zM351 423h9v9h-9zM351 432h9v9h-9zM351 450h9v9h-9zM351 468h9v9h-9zM351 477h9v9h-9zM351 495h9v9h-9zM351 504h9v9h-9zM351 513h9v9h-9zM351 522h9v9h-9zM360 36h9v9h-9zM360 72h9v9h-9zM360 90h9v9h-9zM360 108h9v9h-9zM360 153h9v9h-9zM360 180h9v9h-9zM360 189h9v9h-9zM360 207h9v9h-9zM360 216h9v9h-9zM360 225h9v9h-9zM360 234h9v9h-9zM360 243h9v9h-9zM360 252h9v9h-9zM360 270h9v9h-9zM360 288h9v9h-9zM360 306h9v9h-9zM360 324h9v9h-9zM360 342h9v9h-9zM360 360h9v9h-9zM360 369h9v9h-9zM360 387h9v9h-9zM360 396h9v9h-9zM360 414h9v9h-9zM360 423h9v9h-9zM360 432h9v9h-9zM360 450h9v9h-9zM360 468h9v9h-9zM360 477h9v9h-9zM360 513h9v9h-9zM360 531h9v9h-9zM360 540h9v9h-9zM369 72h9v9h-9zM369 99h9v9h-9zM369 117h9v9h-9zM369 135h9v9h-9zM369 171h9v9h-9zM369 180h9v9h-9zM369 189h9v9h-9zM369 198h9v9h-9zM369 243h9v9h-9zM369 252h9v9h-9zM369 279h9v9h-9zM369 324h9v9h-9zM369 351h9v9h-9zM369 360h9v9h-9zM369 369h9v9h-9zM369 378h9v9h-9zM369 387h9v9h-9zM369 396h9v9h-9zM369 405h9v9h-9zM369 414h9v9h-9zM369 423h9v9h-9zM369 441h9v9h-9zM369 459h9v9h-9zM369 495h9v9h-9zM369 504h9v9h-9zM369 522h9v9h-9zM369 531h9v9h-9zM369 540h9v9h-9zM378 36h9v9h-9zM378 54h9v9h-9zM378 72h9v9h-9zM378 81h9v9h-9zM378 90h9v9h-9zM378 135h9v9h-9zM378 144h9v9h-9zM378 171h9v9h-9zM378 207h9v9h-9zM378 225h9v9h-9zM378 234h9v9h-9zM378 288h9v9h-9zM378 324h9v9h-9zM378 351h9v9h-9zM378 396h9v9h-9zM378 414h9v9h-9zM378 423h9v9h-9zM378 432h9v9h-9zM378 450h9v9h-9zM378 459h9v9h-9zM378 468h9v9h-9zM378 504h9v9h-9zM378 531h9v9h-9zM387 36h9v9h-9zM387 45h9v9h-9zM387 54h9v9h-9zM387 63h9v9h-9zM387 72h9v9h-9zM387 81h9v9h-9zM387 99h9v9h-9zM387 108h9v9h-9zM387 117h9v9h-9zM387 144h9v9h-9zM387 162h9v9h-9zM387 171h9v9h-9zM387 180h9v9h-9zM387 207h9v9h-9zM387 216h9v9h-9zM387 225h9v9h-9zM387 234h9v9h-9zM387 306h9v9h-9zM387 315h9v9h-9zM387 324h9v9h-9zM387 342h9v9h-9zM387 369h9v9h-9zM387 378h9v9h-9zM387 387h9v9h-9zM387 405h9v9h-9zM387 414h9v9h-9zM387 441h9v9h-9zM387 459h9v9h-9zM387 468h9v9h-9zM387 477h9v9h-9zM387 495h9v9h-9zM387 504h9v9h-9zM387 513h9v9h-9zM387 522h9v9h-9zM387 531h9v9h-9zM387 540h9v9h-9zM396 36h9v9h-9zM396 81h9v9h-9zM396 90h9v9h-9zM396 108h9v9h-9zM396 117h9v9h-9zM396 135h9v9h-9zM396 144h9v9h-9zM396 153h9v9h-9zM396 180h9v9h-9zM396 189h9v9h-9zM396 225h9v9h-9zM396 243h9v9h-9zM396 252h9v9h-9zM396 261h9v9h-9zM396 279h9v9h-9zM396 288h9v9h-9zM396 297h9v9h-9zM396 306h9v9h-9zM396 315h9v9h-9zM396 324h9v9h-9zM396 333h9v9h-9zM396 351h9v9h-9zM396 360h9v9h-9zM396 396h9v9h-9zM396 414h9v9h-9zM396 423h9v9h-9zM396 432h9v9h-9zM396 441h9v9h-9zM396 468h9v9h-9zM396 477h9v9h-9zM396 486h9v9h-9zM396 495h9v9h-9zM396 504h9v9h-9zM396 531h9v9h-9zM396 540h9v9h-9zM405 36h9v9h-9zM405 63h9v9h-9zM405 81h9v9h-9zM405 99h9v9h-9zM405 108h9v9h-9zM405 135h9v9h-9zM405 144h9v9h-9zM405 171h9v9h-9zM405 207h9v9h-9zM405 243h9v9h-9zM405 306h9v9h-9zM405 315h9v9h-9zM405 324h9v9h-9zM405 342h9v9h-9zM405 351h9v9h-9zM405 360h9v9h-9zM405 432h9v9h-9zM405 450h9v9h-9zM405 459h9v9h-9zM405 477h9v9h-9zM405 486h9v9h-9zM405 495h9v9h-9zM414 36h9v9h-9zM414 45h9v9h-9zM414 63h9v9h-9zM414 72h9v9h-9zM414 90h9v9h-9zM414 108h9v9h-9zM414 126h9v9h-9zM414 162h9v9h-9zM414 171h9v9h-9zM414 180h9v9h-9zM414 243h9v9h-9zM414 270h9v9h-9zM414 288h9v9h-9zM414 306h9v9h-9zM414 324h9v9h-9zM414 342h9v9h-9zM414 351h9v9h-9zM414 360h9v9h-9zM414 423h9v9h-9zM414 450h9v9h-9zM414 522h9v9h-9zM414 531h9v9h-9zM414 540h9v9h-9zM423 36h9v9h-9zM423 81h9v9h-9zM423 99h9v9h-9zM423 108h9v9h-9zM423 117h9v9h-9zM423 126h9v9h-9zM423 135h9v9h-9zM423 144h9v9h-9zM423 153h9v9h-9zM423 189h9v9h-9zM423 198h9v9h-9zM423 207h9v9h-9zM423 216h9v9h-9zM423 225h9v9h-9zM423 234h9v9h-9zM423 261h9v9h-9zM423 270h9v9h-9zM423 288h9v9h-9zM423 297h9v9h-9zM423 315h9v9h-9zM423 360h9v9h-9zM423 378h9v9h-9zM423 387h9v9h-9zM423 396h9v9h-9zM423 405h9v9h-9zM423 414h9v9h-9zM423 423h9v9h-9zM423 432h9v9h-9zM423 441h9v9h-9zM423 477h9v9h-9zM423 486h9v9h-9zM423 531h9v9h-9zM423 540h9v9h-9zM432 36h9v9h-9zM432 54h9v9h-9zM432 81h9v9h-9zM432 90h9v9h-9zM432 108h9v9h-9zM432 117h9v9h-9zM432 126h9v9h-9zM432 144h9v9h-9zM432 153h9v9h-9zM432 171h9v9h-9zM432 180h9v9h-9zM432 198h9v9h-9zM432 207h9v9h-9zM432 216h9v9h-9zM432 234h9v9h-9zM432 243h9v9h-9zM432 252h9v9h-9zM432 261h9v9h-9zM432 288h9v9h-9zM432 297h9v9h-9zM432 324h9v9h-9zM432 360h9v9h-9zM432 378h9v9h-9zM432 387h9v9h-9zM432 396h9v9h-9zM432 405h9v9h-9zM432 432h9v9h-9zM432 441h9v9h-9zM432 459h9v9h-9zM432 468h9v9h-9zM432 486h9v9h-9zM432 495h9v9h-9zM432 504h9v9h-9zM432 522h9v9h-9zM432 540h9v9h-9zM441 36h9v9h-9zM441 45h9v9h-9zM441 81h9v9h-9zM441 99h9v9h-9zM441 108h9v9h-9zM441 126h9v9h-9zM441 153h9v9h-9zM441 180h9v9h-9zM441 198h9v9h-9zM441 207h9v9h-9zM441 216h9v9h-9zM441 225h9v9h-9zM441 234h9v9h-9zM441 252h9v9h-9zM441 279h9v9h-9zM441 315h9v9h-9zM441 342h9v9h-9zM441 351h9v9h-9zM441 387h9v9h-9zM441 396h9v9h-9zM441 405h9v9h-9zM441 414h9v9h-9zM441 477h9v9h-9zM441 504h9v9h-9zM450 36h9v9h-9zM450 54h9v9h-9zM450 81h9v9h-9zM450 90h9v9h-9zM450 108h9v9h-9zM450 126h9v9h-9zM450 135h9v9h-9zM450 144h9v9h-9zM450 180h9v9h-9zM450 198h9v9h-9zM450 252h9v9h-9zM450 270h9v9h-9zM450 306h9v9h-9zM450 324h9v9h-9zM450 378h9v9h-9zM450 387h9v9h-9zM450 396h9v9h-9zM450 423h9v9h-9zM450 450h9v9h-9zM450 468h9v9h-9zM450 486h9v9h-9zM450 504h9v9h-9zM450 531h9v9h-9zM459 36h9v9h-9zM459 45h9v9h-9zM459 54h9v9h-9zM459 63h9v9h-9zM459 72h9v9h-9zM459 99h9v9h-9zM459 108h9v9h-9zM459 117h9v9h-9zM459 135h9v9h-9zM459 198h9v9h-9zM459 207h9v9h-9zM459 234h9v9h-9zM459 243h9v9h-9zM459 261h9v9h-9zM459 270h9v9h-9zM459 288h9v9h-9zM459 333h9v9h-9zM459 342h9v9h-9zM459 351h9v9h-9zM459 378h9v9h-9zM459 423h9v9h-9zM459 477h9v9h-9zM459 486h9v9h-9zM459 495h9v9h-9zM459 504h9v9h-9zM459 531h9v9h-9zM459 540h9v9h-9zM468 90h9v9h-9zM468 99h9v9h-9zM468 126h9v9h-9zM468 144h9v9h-9zM468 162h9v9h-9zM468 198h9v9h-9zM468 216h9v9h-9zM468 252h9v9h-9zM468 270h9v9h-9zM468 279h9v9h-9zM468 288h9v9h-9zM468 297h9v9h-9zM468 306h9v9h-9zM468 351h9v9h-9zM468 360h9v9h-9zM468 369h9v9h-9zM468 378h9v9h-9zM468 387h9v9h-9zM468 414h9v9h-9zM468 423h9v9h-9zM468 432h9v9h-9zM468 441h9v9h-9zM468 450h9v9h-9zM468 468h9v9h-9zM468 477h9v9h-9zM468 486h9v9h-9zM468 495h9v9h-9zM468 504h9v9h-9zM468 513h9v9h-9zM468 522h9v9h-9zM468 540h9v9h-9zM477 117h9v9h-9zM477 126h9v9h-9zM477 189h9v9h-9zM477 198h9v9h-9zM477 207h9v9h-9zM477 252h9v9h-9zM477 270h9v9h-9zM477 306h9v9h-9zM477 315h9v9h-9zM477 333h9v9h-9zM477 360h9v9h-9zM477 369h9v9h-9zM477 378h9v9h-9zM477 405h9v9h-9zM477 414h9v9h-9zM477 450h9v9h-9zM477 459h9v9h-9zM477 468h9v9h-9zM477 504h9v9h-9zM477 513h9v9h-9zM477 522h9v9h-9zM486 36h9v9h-9zM486 45h9v9h-9zM486 54h9v9h-9zM486 63h9v9h-9zM486 72h9v9h-9zM486 81h9v9h-9zM486 90h9v9h-9zM486 135h9v9h-9zM486 171h9v9h-9zM486 243h9v9h-9zM486 252h9v9h-9zM486 270h9v9h-9zM486 288h9v9h-9zM486 306h9v9h-9zM486 342h9v9h-9zM486 351h9v9h-9zM486 369h9v9h-9zM486 378h9v9h-9zM486 387h9v9h-9zM486 405h9v9h-9zM486 414h9v9h-9zM486 450h9v9h-9zM486 459h9v9h-9zM486 468h9v9h-9zM486 486h9v9h-9zM486 504h9v9h-9zM486 513h9v9h-9zM486 522h9v9h-9zM486 540h9v9h-9zM495 36h9v9h-9zM495 90h9v9h-9zM495 117h9v9h-9zM495 162h9v9h-9zM495 180h9v9h-9zM495 189h9v9h-9zM495 198h9v9h-9zM495 207h9v9h-9zM495 216h9v9h-9zM495 243h9v9h-9zM495 270h9v9h-9zM495 306h9v9h-9zM495 333h9v9h-9zM495 342h9v9h-9zM495 351h9v9h-9zM495 387h9v9h-9zM495 396h9v9h-9zM495 414h9v9h-9zM495 423h9v9h-9zM495 450h9v9h-9zM495 468h9v9h-9zM495 504h9v9h-9zM495 513h9v9h-9zM495 522h9v9h-9zM504 36h9v9h-9zM504 54h9v9h-9zM504 63h9v9h-9zM504 72h9v9h-9zM504 90h9v9h-9zM504 108h9v9h-9zM504 126h9v9h-9zM504 135h9v9h-9zM504 144h9v9h-9zM504 162h9v9h-9zM504 171h9v9h-9zM504 180h9v9h-9zM504 198h9v9h-9zM504 216h9v9h-9zM504 243h9v9h-9zM504 252h9v9h-9zM504 261h9v9h-9zM504 270h9v9h-9zM504 279h9v9h-9zM504 288h9v9h-9zM504 297h9v9h-9zM504 306h9v9h-9zM504 315h9v9h-9zM504 342h9v9h-9zM504 351h9v9h-9zM504 360h9v9h-9zM504 378h9v9h-9zM504 432h9v9h-9zM504 468h9v9h-9zM504 477h9v9h-9zM504 486h9v9h-9zM504 495h9v9h-9zM504 504h9v9h-9zM504 513h9v9h-9zM504 522h9v9h-9zM504 531h9v9h-9zM504 540h9v9h-9zM513 36h9v9h-9zM513 54h9v9h-9zM513 63h9v9h-9zM513 72h9v9h-9zM513 90h9v9h-9zM513 117h9v9h-9zM513 126h9v9h-9zM513 144h9v9h-9zM513 153h9v9h-9zM513 171h9v9h-9zM513 180h9v9h-9zM513 207h9v9h-9zM513 225h9v9h-9zM513 324h9v9h-9zM513 333h9v9h-9zM513 351h9v9h-9zM513 360h9v9h-9zM513 414h9v9h-9zM513 450h9v9h-9zM513 477h9v9h-9zM513 486h9v9h-9zM513 504h9v9h-9zM513 513h9v9h-9zM513 522h9v9h-9zM513 531h9v9h-9zM522 36h9v9h-9zM522 54h9v9h-9zM522 63h9v9h-9zM522 72h9v9h-9zM522 90h9v9h-9zM522 117h9v9h-9zM522 144h9v9h-9zM522 153h9v9h-9zM522 162h9v9h-9zM522 189h9v9h-9zM522 198h9v9h-9zM522 252h9v9h-9zM522 261h9v9h-9zM522 270h9v9h-9zM522 306h9v9h-9zM522 324h9v9h-9zM522 342h9v9h-9zM522 369h9v9h-9zM522 414h9v9h-9zM522 432h9v9h-9zM522 450h9v9h-9zM522 477h9v9h-9zM522 486h9v9h-9zM522 504h9v9h-9zM522 513h9v9h-9zM522 522h9v9h-9zM531 36h9v9h-9zM531 90h9v9h-9zM531 108h9v9h-9zM531 117h9v9h-9zM531 126h9v9h-9zM531 144h9v9h-9zM531 153h9v9h-9zM531 162h9v9h-9zM531 180h9v9h-9zM531 189h9v9h-9zM531 198h9v9h-9zM531 207h9v9h-9zM531 216h9v9h-9zM531 225h9v9h-9zM531 243h9v9h-9zM531 279h9v9h-9zM531 288h9v9h-9zM531 297h9v9h-9zM531 306h9v9h-9zM531 315h9v9h-9zM531 351h9v9h-9zM531 369h9v9h-9zM531 378h9v9h-9zM531 396h9v9h-9zM531 441h9v9h-9zM531 450h9v9h-9zM531 477h9v9h-9zM531 495h9v9h-9zM531 504h9v9h-9zM531 513h9v9h-9zM531 531h9v9h-9zM531 540h9v9h-9zM540 36h9v9h-9zM540 45h9v9h-9zM540 54h9v9h-9zM540 63h9v9h-9zM540 72h9v9h-9zM540 81h9v9h-9zM540 90h9v9h-9zM540 117h9v9h-9zM540 126h9v9h-9zM540 144h9v9h-9zM540 162h9v9h-9zM540 189h9v9h-9zM540 198h9v9h-9zM540 225h9v9h-9zM540 234h9v9h-9zM540 243h9v9h-9zM540 261h9v9h-9zM540 270h9v9h-9zM540 297h9v9h-9zM540 306h9v9h-9zM540 324h9v9h-9zM540 333h9v9h-9zM540 360h9v9h-9zM540 369h9v9h-9zM540 378h9v9h-9zM540 396h9v9h-9zM540 405h9v9h-9zM540 414h9v9h-9zM540 423h9v9h-9zM540 450h9v9h-9zM540 477h9v9h-9zM540 486h9v9h-9zM540 495h9v9h-9zM540 504h9v9h-9zM540 522h9v9h-9zM540 540h9v9h-9z"/></svg>